<svg xmlns="http://www.w3.org/2000/svg" version="1.1" xmlns:xlink="http://www.w3.org/1999/xlink" xmlns:svgjs="http://svgjs.com/svgjs" width="1920" height="1080" preserveAspectRatio="none" viewBox="0 0 1920 1080"><g mask="url(&quot;#SvgjsMask5296&quot;)" fill="none"><rect width="1920" height="1080" x="0" y="0" fill="url(#SvgjsLinearGradient5297)"></rect><path d="M1920 0L1586.05 0L1920 87.81z" fill="rgba(255, 255, 255, .1)"></path><path d="M1586.05 0L1920 87.81L1920 121.87L1420.05 0z" fill="rgba(255, 255, 255, .075)"></path><path d="M1420.05 0L1920 121.87L1920 303.08000000000004L1233.3 0z" fill="rgba(255, 255, 255, .05)"></path><path d="M1233.3 0L1920 303.08000000000004L1920 379.26000000000005L460.75 0z" fill="rgba(255, 255, 255, .025)"></path><path d="M0 1080L728.22 1080L0 818.8299999999999z" fill="rgba(0, 0, 0, .1)"></path><path d="M0 818.8299999999999L728.22 1080L1230.26 1080L0 658.9799999999999z" fill="rgba(0, 0, 0, .075)"></path><path d="M0 658.98L1230.26 1080L1627 1080L0 649.6700000000001z" fill="rgba(0, 0, 0, .05)"></path><path d="M0 649.6700000000001L1627 1080L1791.85 1080L0 588.73z" fill="rgba(0, 0, 0, .025)"></path></g><defs><mask id="SvgjsMask5296"><rect width="1920" height="1080" fill="#ffffff"></rect></mask><linearGradient x1="10.94%" y1="-19.44%" x2="89.06%" y2="119.44%" gradientUnits="userSpaceOnUse" id="SvgjsLinearGradient5297"><stop stop-color="rgba(141, 134, 201, 1)" offset="0"></stop><stop stop-color="rgba(36, 32, 56, 1)" offset="0.1"></stop><stop stop-color="rgba(36, 32, 56, 1)" offset="0.28"></stop><stop stop-color="rgba(36, 32, 56, 1)" offset="0.52"></stop><stop stop-color="rgba(36, 32, 56, 1)" offset="0.75"></stop><stop stop-color="rgba(36, 32, 56, 1)" offset="0.92"></stop><stop stop-color="rgba(141, 134, 201, 1)" offset="1"></stop></linearGradient></defs></svg>